<svg width="1000" height="560" viewBox="0 0 1000 560" fill="none" xmlns="http://www.w3.org/2000/svg">
  <defs>
    <linearGradient id="hallBg" x1="500" y1="0" x2="500" y2="560" gradientUnits="userSpaceOnUse">
      <stop offset="0" stop-color="#DCE7F3"/>
      <stop offset="0.18" stop-color="#F7F6F2"/>
      <stop offset="0.78" stop-color="#F3E7DD"/>
      <stop offset="1" stop-color="#E1D4C9"/>
    </linearGradient>
    <linearGradient id="ceilingIvory" x1="0" y1="0" x2="0" y2="310" gradientUnits="userSpaceOnUse">
      <stop offset="0" stop-color="#FBF7F1"/>
      <stop offset="1" stop-color="#ECE3DA"/>
    </linearGradient>
    <linearGradient id="skylight" x1="500" y1="0" x2="500" y2="320" gradientUnits="userSpaceOnUse">
      <stop offset="0" stop-color="#C8D8EA"/>
      <stop offset="0.55" stop-color="#D7E3EF"/>
      <stop offset="1" stop-color="#E8EEF5"/>
    </linearGradient>
    <linearGradient id="aisle" x1="500" y1="330" x2="500" y2="560" gradientUnits="userSpaceOnUse">
      <stop offset="0" stop-color="#FFFFFF"/>
      <stop offset="0.62" stop-color="#FBF6F0"/>
      <stop offset="1" stop-color="#EADDD2"/>
    </linearGradient>
    <linearGradient id="wallGreen" x1="278" y1="286" x2="360" y2="426" gradientUnits="userSpaceOnUse">
      <stop offset="0" stop-color="#668C58"/>
      <stop offset="1" stop-color="#406D3E"/>
    </linearGradient>
    <linearGradient id="wallGreenSoft" x1="280" y1="286" x2="360" y2="426" gradientUnits="userSpaceOnUse">
      <stop offset="0" stop-color="#7FA16F"/>
      <stop offset="1" stop-color="#4B7748"/>
    </linearGradient>
    <linearGradient id="benchSeat" x1="0" y1="0" x2="0" y2="1">
      <stop offset="0" stop-color="#F6EEE6"/>
      <stop offset="1" stop-color="#E7D8CB"/>
    </linearGradient>
    <linearGradient id="benchFront" x1="0" y1="0" x2="0" y2="1">
      <stop offset="0" stop-color="#D7C5B5"/>
      <stop offset="1" stop-color="#C5B09E"/>
    </linearGradient>
    <radialGradient id="altarGlow" cx="0" cy="0" r="1" gradientUnits="userSpaceOnUse" gradientTransform="translate(500 312) rotate(90) scale(170 205)">
      <stop stop-color="#FFFDF4" stop-opacity="0.82"/>
      <stop offset="1" stop-color="#FFFDF4" stop-opacity="0"/>
    </radialGradient>
    <radialGradient id="chandelierGlow" cx="0" cy="0" r="1" gradientUnits="userSpaceOnUse" gradientTransform="translate(0 40) rotate(90) scale(62 44)">
      <stop stop-color="#FFF8E8" stop-opacity="0.42"/>
      <stop offset="1" stop-color="#FFF8E8" stop-opacity="0"/>
    </radialGradient>
    <radialGradient id="aisleGlow" cx="0" cy="0" r="1" gradientUnits="userSpaceOnUse" gradientTransform="translate(500 392) rotate(90) scale(220 280)">
      <stop stop-color="#FFFFFF" stop-opacity="0.18"/>
      <stop offset="1" stop-color="#FFFFFF" stop-opacity="0"/>
    </radialGradient>
  </defs>

  <rect width="1000" height="560" fill="url(#hallBg)"/>
  <rect width="1000" height="560" fill="url(#altarGlow)"/>

  <polygon points="96 62 436 0 436 286 96 230" fill="url(#ceilingIvory)"/>
  <polygon points="564 0 904 62 904 230 564 286" fill="url(#ceilingIvory)"/>

  <polygon points="86 286 304 166 304 286" fill="#C9D9EA" opacity="0.92"/>
  <polygon points="914 286 696 166 696 286" fill="#C9D9EA" opacity="0.92"/>
  <line x1="146" y1="286" x2="304" y2="198" stroke="#DDE7F2" stroke-width="3"/>
  <line x1="208" y1="286" x2="304" y2="232" stroke="#DDE7F2" stroke-width="2.5"/>
  <line x1="854" y1="286" x2="696" y2="198" stroke="#DDE7F2" stroke-width="3"/>
  <line x1="792" y1="286" x2="696" y2="232" stroke="#DDE7F2" stroke-width="2.5"/>

  <rect x="430" y="-10" width="26" height="330" fill="#E2E2E0"/>
  <rect x="544" y="-10" width="26" height="330" fill="#E2E2E0"/>
  <rect x="456" y="-10" width="88" height="320" fill="url(#skylight)"/>
  <line x1="500" y1="0" x2="500" y2="320" stroke="#B7BEC9" stroke-width="2"/>
  <line x1="456" y1="82" x2="544" y2="82" stroke="#BCC4CD" stroke-width="2"/>
  <line x1="456" y1="164" x2="544" y2="164" stroke="#BCC4CD" stroke-width="2"/>
  <line x1="456" y1="246" x2="544" y2="246" stroke="#BCC4CD" stroke-width="2"/>
  <rect x="418" y="0" width="12" height="320" fill="#D8D8D5"/>
  <rect x="570" y="0" width="12" height="320" fill="#D8D8D5"/>
  <g fill="#FBFBFA" opacity="0.94">
    <circle cx="424" cy="26" r="4.3"/><circle cx="576" cy="26" r="4.3"/>
    <circle cx="424" cy="68" r="4.3"/><circle cx="576" cy="68" r="4.3"/>
    <circle cx="424" cy="110" r="4.3"/><circle cx="576" cy="110" r="4.3"/>
    <circle cx="424" cy="152" r="4.3"/><circle cx="576" cy="152" r="4.3"/>
    <circle cx="424" cy="194" r="4.3"/><circle cx="576" cy="194" r="4.3"/>
    <circle cx="424" cy="236" r="4.3"/><circle cx="576" cy="236" r="4.3"/>
  </g>

  <line x1="110" y1="146" x2="300" y2="18" stroke="#4E3A33" stroke-width="4"/>
  <line x1="142" y1="208" x2="316" y2="88" stroke="#4E3A33" stroke-width="3.5"/>
  <line x1="176" y1="36" x2="324" y2="82" stroke="#4E3A33" stroke-width="3.5"/>
  <line x1="890" y1="146" x2="700" y2="18" stroke="#4E3A33" stroke-width="4"/>
  <line x1="858" y1="208" x2="684" y2="88" stroke="#4E3A33" stroke-width="3.5"/>
  <line x1="824" y1="36" x2="676" y2="82" stroke="#4E3A33" stroke-width="3.5"/>

  <g fill="#FBFBFA" opacity="0.96">
    <circle cx="438" cy="18" r="5.4"/><circle cx="562" cy="18" r="5.4"/>
    <circle cx="440" cy="50" r="5.4"/><circle cx="560" cy="50" r="5.4"/>
    <circle cx="442" cy="82" r="5.4"/><circle cx="558" cy="82" r="5.4"/>
    <circle cx="444" cy="114" r="5.4"/><circle cx="556" cy="114" r="5.4"/>
    <circle cx="446" cy="146" r="5.4"/><circle cx="554" cy="146" r="5.4"/>
    <circle cx="448" cy="178" r="5.4"/><circle cx="552" cy="178" r="5.4"/>
    <circle cx="450" cy="210" r="5.4"/><circle cx="550" cy="210" r="5.4"/>
    <circle cx="452" cy="242" r="5.4"/><circle cx="548" cy="242" r="5.4"/>
    <circle cx="454" cy="274" r="5.4"/><circle cx="546" cy="274" r="5.4"/>
  </g>

  <g opacity="0.96">
    <g transform="translate(118 102)">
      <ellipse cx="0" cy="44" rx="60" ry="44" fill="url(#chandelierGlow)"/>
      <line x1="0" y1="-40" x2="138" y2="-62" stroke="#4E3A33" stroke-width="3"/>
      <ellipse cx="0" cy="0" rx="46" ry="14" fill="#EEF1E1" stroke="#CFD6C2" stroke-width="1.5"/>
      <circle cx="-28" cy="-2" r="6.5" fill="#FFFDF9"/><circle cx="-12" cy="-5" r="6" fill="#F5E9E5"/><circle cx="4" cy="-4" r="6.5" fill="#FFFDF9"/><circle cx="20" cy="-2" r="6" fill="#F7F1E8"/>
      <g stroke="rgba(255,255,255,0.82)" stroke-width="1.2" fill="#FFFFFF">
        <line x1="-24" y1="10" x2="-24" y2="78"/><circle cx="-24" cy="78" r="2.2"/>
        <line x1="-12" y1="10" x2="-12" y2="102"/><circle cx="-12" cy="102" r="2.2"/>
        <line x1="0" y1="10" x2="0" y2="118"/><circle cx="0" cy="118" r="2.2"/>
        <line x1="12" y1="10" x2="12" y2="96"/><circle cx="12" cy="96" r="2.2"/>
        <line x1="24" y1="10" x2="24" y2="72"/><circle cx="24" cy="72" r="2.2"/>
      </g>
    </g>
    <g transform="translate(882 102)">
      <ellipse cx="0" cy="44" rx="60" ry="44" fill="url(#chandelierGlow)"/>
      <line x1="0" y1="-40" x2="-138" y2="-62" stroke="#4E3A33" stroke-width="3"/>
      <ellipse cx="0" cy="0" rx="46" ry="14" fill="#EEF1E1" stroke="#CFD6C2" stroke-width="1.5"/>
      <circle cx="-20" cy="-2" r="6" fill="#F7F1E8"/><circle cx="-4" cy="-4" r="6.5" fill="#FFFDF9"/><circle cx="12" cy="-5" r="6" fill="#F5E9E5"/><circle cx="28" cy="-2" r="6.5" fill="#FFFDF9"/>
      <g stroke="rgba(255,255,255,0.82)" stroke-width="1.2" fill="#FFFFFF">
        <line x1="-24" y1="10" x2="-24" y2="72"/><circle cx="-24" cy="72" r="2.2"/>
        <line x1="-12" y1="10" x2="-12" y2="96"/><circle cx="-12" cy="96" r="2.2"/>
        <line x1="0" y1="10" x2="0" y2="118"/><circle cx="0" cy="118" r="2.2"/>
        <line x1="12" y1="10" x2="12" y2="102"/><circle cx="12" cy="102" r="2.2"/>
        <line x1="24" y1="10" x2="24" y2="78"/><circle cx="24" cy="78" r="2.2"/>
      </g>
    </g>
    <g transform="translate(212 232) scale(0.84)">
      <ellipse cx="0" cy="38" rx="50" ry="36" fill="url(#chandelierGlow)"/>
      <line x1="0" y1="-34" x2="132" y2="-160" stroke="#4E3A33" stroke-width="3"/>
      <ellipse cx="0" cy="0" rx="38" ry="12" fill="#EEF1E1" stroke="#CFD6C2" stroke-width="1.4"/>
      <circle cx="-20" cy="-2" r="5.5" fill="#FFFDF9"/><circle cx="-4" cy="-4" r="5" fill="#F5E9E5"/><circle cx="12" cy="-2" r="5.5" fill="#FFFDF9"/>
      <g stroke="rgba(255,255,255,0.8)" stroke-width="1.1" fill="#FFFFFF">
        <line x1="-16" y1="8" x2="-16" y2="56"/><circle cx="-16" cy="56" r="1.8"/>
        <line x1="-4" y1="8" x2="-4" y2="74"/><circle cx="-4" cy="74" r="1.8"/>
        <line x1="8" y1="8" x2="8" y2="84"/><circle cx="8" cy="84" r="1.8"/>
        <line x1="20" y1="8" x2="20" y2="62"/><circle cx="20" cy="62" r="1.8"/>
      </g>
    </g>
    <g transform="translate(788 232) scale(0.84)">
      <ellipse cx="0" cy="38" rx="50" ry="36" fill="url(#chandelierGlow)"/>
      <line x1="0" y1="-34" x2="-132" y2="-160" stroke="#4E3A33" stroke-width="3"/>
      <ellipse cx="0" cy="0" rx="38" ry="12" fill="#EEF1E1" stroke="#CFD6C2" stroke-width="1.4"/>
      <circle cx="-12" cy="-2" r="5.5" fill="#FFFDF9"/><circle cx="4" cy="-4" r="5" fill="#F5E9E5"/><circle cx="20" cy="-2" r="5.5" fill="#FFFDF9"/>
      <g stroke="rgba(255,255,255,0.8)" stroke-width="1.1" fill="#FFFFFF">
        <line x1="-16" y1="8" x2="-16" y2="62"/><circle cx="-16" cy="62" r="1.8"/>
        <line x1="-4" y1="8" x2="-4" y2="84"/><circle cx="-4" cy="84" r="1.8"/>
        <line x1="8" y1="8" x2="8" y2="74"/><circle cx="8" cy="74" r="1.8"/>
        <line x1="20" y1="8" x2="20" y2="56"/><circle cx="20" cy="56" r="1.8"/>
      </g>
    </g>
  </g>

  <rect x="280" y="286" width="84" height="138" rx="15" fill="url(#wallGreen)"/>
  <rect x="292" y="298" width="58" height="114" rx="12" fill="url(#wallGreenSoft)" opacity="0.82"/>
  <rect x="636" y="286" width="84" height="138" rx="15" fill="url(#wallGreen)"/>
  <rect x="648" y="298" width="58" height="114" rx="12" fill="url(#wallGreenSoft)" opacity="0.82"/>

  <g opacity="0.92">
    <circle cx="286" cy="316" r="10" fill="#F8F6F1"/><circle cx="300" cy="306" r="8" fill="#F2E5E0"/><circle cx="318" cy="302" r="8" fill="#FFFDF9"/><circle cx="336" cy="308" r="8" fill="#F6EFE7"/>
    <circle cx="714" cy="316" r="10" fill="#F8F6F1"/><circle cx="700" cy="306" r="8" fill="#F2E5E0"/><circle cx="682" cy="302" r="8" fill="#FFFDF9"/><circle cx="664" cy="308" r="8" fill="#F6EFE7"/>
  </g>
  <g fill="#5E824F" opacity="0.88">
    <circle cx="292" cy="328" r="6"/><circle cx="330" cy="300" r="5.5"/><circle cx="708" cy="328" r="6"/><circle cx="670" cy="300" r="5.5"/>
  </g>

  <rect x="382" y="214" width="236" height="126" fill="rgba(255,255,255,0.1)"/>
  <rect x="396" y="230" width="208" height="104" fill="rgba(255,255,255,0.08)"/>
  <line x1="360" y1="452" x2="640" y2="452" stroke="#9A9185" stroke-width="3"/>
  <line x1="392" y1="214" x2="392" y2="452" stroke="#9A9185" stroke-width="2.2"/>
  <line x1="608" y1="214" x2="608" y2="452" stroke="#9A9185" stroke-width="2.2"/>
  <line x1="390" y1="332" x2="610" y2="332" stroke="#9A9185" stroke-width="2"/>
  <line x1="406" y1="210" x2="406" y2="334" stroke="#9A9185" stroke-width="1.7"/>
  <line x1="438" y1="210" x2="438" y2="334" stroke="#9A9185" stroke-width="1.7"/>
  <line x1="470" y1="210" x2="470" y2="334" stroke="#9A9185" stroke-width="1.7"/>
  <line x1="502" y1="210" x2="502" y2="334" stroke="#9A9185" stroke-width="1.7"/>
  <line x1="534" y1="210" x2="534" y2="334" stroke="#9A9185" stroke-width="1.7"/>
  <line x1="566" y1="210" x2="566" y2="334" stroke="#9A9185" stroke-width="1.7"/>
  <line x1="598" y1="210" x2="598" y2="334" stroke="#9A9185" stroke-width="1.7"/>
  <line x1="406" y1="264" x2="594" y2="264" stroke="#AEA79B" stroke-width="1.5"/>
  <g opacity="0.88">
    <path d="M390 452 Q500 284 610 452" stroke="#D8C8B9" stroke-width="6" fill="none"/>
    <path d="M404 452 Q500 304 596 452" stroke="#EEE5D9" stroke-width="3.5" fill="none"/>
    <circle cx="390" cy="452" r="8" fill="#FFFDF9"/><circle cx="610" cy="452" r="8" fill="#FFFDF9"/>
    <circle cx="420" cy="412" r="9" fill="#FFFDF9"/><circle cx="580" cy="412" r="9" fill="#FFFDF9"/>
    <circle cx="448" cy="374" r="8" fill="#F3E5E0"/><circle cx="552" cy="374" r="8" fill="#F3E5E0"/>
    <circle cx="476" cy="344" r="7" fill="#FFFDF9"/><circle cx="524" cy="344" r="7" fill="#FFFDF9"/>
    <circle cx="500" cy="330" r="7" fill="#F7F1E9"/>
  </g>
  <g opacity="0.92">
    <circle cx="398" cy="446" r="12" fill="#FFFDF9"/><circle cx="412" cy="434" r="10" fill="#F4E4E0"/><circle cx="430" cy="420" r="11" fill="#FFFDF9"/><circle cx="452" cy="388" r="10" fill="#F6EFE8"/><circle cx="472" cy="360" r="10" fill="#F2E3DE"/>
    <circle cx="602" cy="446" r="12" fill="#FFFDF9"/><circle cx="588" cy="434" r="10" fill="#F4E4E0"/><circle cx="570" cy="420" r="11" fill="#FFFDF9"/><circle cx="548" cy="388" r="10" fill="#F6EFE8"/><circle cx="528" cy="360" r="10" fill="#F2E3DE"/>
  </g>
  <g fill="#638455" opacity="0.86">
    <circle cx="410" cy="444" r="6"/><circle cx="442" cy="404" r="5.5"/><circle cx="468" cy="372" r="5.5"/>
    <circle cx="590" cy="444" r="6"/><circle cx="558" cy="404" r="5.5"/><circle cx="532" cy="372" r="5.5"/>
  </g>

  <g fill="#F9F7F1" opacity="0.96">
    <circle cx="392" cy="470" r="12"/><circle cx="420" cy="472" r="11"/><circle cx="448" cy="468" r="11"/><circle cx="474" cy="466" r="10"/><circle cx="500" cy="464" r="10"/><circle cx="526" cy="466" r="10"/><circle cx="552" cy="468" r="11"/><circle cx="580" cy="472" r="11"/><circle cx="608" cy="470" r="12"/>
    <circle cx="410" cy="344" r="7"/><circle cx="426" cy="348" r="7"/><circle cx="442" cy="342" r="7"/>
    <circle cx="458" cy="350" r="7"/><circle cx="474" cy="344" r="6"/><circle cx="526" cy="344" r="6"/>
    <circle cx="542" cy="350" r="7"/><circle cx="558" cy="342" r="7"/><circle cx="574" cy="348" r="7"/><circle cx="590" cy="344" r="7"/>
  </g>
  <g fill="#F4E2DE" opacity="0.74">
    <circle cx="392" cy="360" r="5.5"/><circle cx="608" cy="360" r="5.5"/><circle cx="434" cy="360" r="4.8"/><circle cx="566" cy="360" r="4.8"/>
    <circle cx="408" cy="484" r="8"/><circle cx="444" cy="482" r="7"/><circle cx="500" cy="478" r="7"/><circle cx="556" cy="482" r="7"/><circle cx="592" cy="484" r="8"/>
  </g>
  <g stroke="rgba(237,239,230,0.84)" stroke-width="1.2" fill="#FCFCF7">
    <line x1="442" y1="250" x2="442" y2="358"/><circle cx="442" cy="282" r="2.2"/><circle cx="442" cy="318" r="2"/>
    <line x1="458" y1="246" x2="458" y2="354"/><circle cx="458" cy="280" r="2.2"/><circle cx="458" cy="316" r="2"/>
    <line x1="474" y1="250" x2="474" y2="362"/><circle cx="474" cy="286" r="2.2"/><circle cx="474" cy="326" r="2"/>
    <line x1="490" y1="246" x2="490" y2="354"/><circle cx="490" cy="278" r="2.2"/><circle cx="490" cy="312" r="2"/>
    <line x1="506" y1="252" x2="506" y2="364"/><circle cx="506" cy="286" r="2.2"/><circle cx="506" cy="328" r="2"/>
    <line x1="522" y1="246" x2="522" y2="356"/><circle cx="522" cy="280" r="2.2"/><circle cx="522" cy="316" r="2"/>
    <line x1="538" y1="250" x2="538" y2="360"/><circle cx="538" cy="284" r="2.2"/><circle cx="538" cy="322" r="2"/>
    <line x1="554" y1="246" x2="554" y2="354"/><circle cx="554" cy="280" r="2.2"/><circle cx="554" cy="316" r="2"/>
  </g>
  <g stroke="#D7CFBF" stroke-width="2" fill="#FFF8EF">
    <line x1="352" y1="352" x2="352" y2="430"/><circle cx="352" cy="434" r="4.5"/>
    <line x1="648" y1="352" x2="648" y2="430"/><circle cx="648" cy="434" r="4.5"/>
  </g>
  <g fill="#FFFDF9" opacity="0.9">
    <circle cx="352" cy="404" r="4.5"/><circle cx="648" cy="404" r="4.5"/>
    <circle cx="352" cy="384" r="3.8"/><circle cx="648" cy="384" r="3.8"/>
  </g>
  <g stroke="#D7CFBF" stroke-width="1.7" fill="#FFF8EF" opacity="0.82">
    <line x1="308" y1="392" x2="308" y2="450"/><circle cx="308" cy="454" r="3.8"/>
    <line x1="692" y1="392" x2="692" y2="450"/><circle cx="692" cy="454" r="3.8"/>
  </g>
  <g fill="#FFFDF9" opacity="0.84">
    <circle cx="308" cy="432" r="3.5"/><circle cx="692" cy="432" r="3.5"/>
  </g>

  <g fill="#F6F1EA" opacity="0.94">
    <circle cx="370" cy="384" r="13"/><circle cx="394" cy="374" r="12"/><circle cx="420" cy="368" r="11"/><circle cx="452" cy="364" r="9"/>
    <circle cx="630" cy="384" r="13"/><circle cx="606" cy="374" r="12"/><circle cx="580" cy="368" r="11"/><circle cx="548" cy="364" r="9"/>
  </g>
  <g fill="#EED8D4" opacity="0.68">
    <circle cx="384" cy="394" r="8"/><circle cx="616" cy="394" r="8"/><circle cx="430" cy="386" r="6"/><circle cx="570" cy="386" r="6"/>
  </g>

  <rect x="438" y="340" width="124" height="22" fill="#F9F4ED"/>
  <rect x="424" y="362" width="152" height="15" fill="#EEE2D4"/>
  <rect x="430" y="378" width="140" height="10" fill="#E6D9CB"/>

  <polygon points="500 346 640 560 360 560" fill="url(#aisle)"/>
  <polygon points="500 346 720 560 280 560" fill="url(#aisleGlow)"/>
  <polygon points="500 346 604 560 396 560" fill="rgba(255,255,255,0.42)"/>
  <line x1="500" y1="346" x2="500" y2="560" stroke="rgba(213,204,194,0.48)" stroke-width="1.4"/>
  <line x1="430" y1="390" x2="322" y2="560" stroke="rgba(232,223,214,0.66)" stroke-width="2"/>
  <line x1="570" y1="390" x2="678" y2="560" stroke="rgba(232,223,214,0.66)" stroke-width="2"/>
  <g opacity="0.62">
    <line x1="456" y1="412" x2="386" y2="560" stroke="rgba(236,228,219,0.8)" stroke-width="1.8"/>
    <line x1="544" y1="412" x2="614" y2="560" stroke="rgba(236,228,219,0.8)" stroke-width="1.8"/>
  </g>

  <g opacity="0.84">
    <polygon points="216 452 346 452 324 468 196 468" fill="url(#benchSeat)"/>
    <polygon points="196 468 324 468 324 478 196 478" fill="url(#benchFront)"/>
    <polygon points="234 488 356 488 338 500 218 500" fill="url(#benchSeat)"/>
    <polygon points="218 500 338 500 338 508 218 508" fill="url(#benchFront)"/>
    <polygon points="248 520 364 520 350 530 236 530" fill="url(#benchSeat)"/>
    <polygon points="236 530 350 530 350 538 236 538" fill="url(#benchFront)"/>
  </g>
  <g opacity="0.84">
    <polygon points="654 452 784 452 804 468 676 468" fill="url(#benchSeat)"/>
    <polygon points="676 468 804 468 804 478 676 478" fill="url(#benchFront)"/>
    <polygon points="644 488 766 488 782 500 662 500" fill="url(#benchSeat)"/>
    <polygon points="662 500 782 500 782 508 662 508" fill="url(#benchFront)"/>
    <polygon points="636 520 752 520 764 530 650 530" fill="url(#benchSeat)"/>
    <polygon points="650 530 764 530 764 538 650 538" fill="url(#benchFront)"/>
  </g>
  <g fill="#F1E7DE" opacity="0.72">
    <ellipse cx="278" cy="446" rx="16" ry="8"/><ellipse cx="296" cy="480" rx="14" ry="7"/><ellipse cx="308" cy="512" rx="13" ry="6"/>
    <ellipse cx="722" cy="446" rx="16" ry="8"/><ellipse cx="704" cy="480" rx="14" ry="7"/><ellipse cx="692" cy="512" rx="13" ry="6"/>
  </g>
  <rect x="258" y="514" width="484" height="42" rx="6" fill="#F7F2EC"/>
  <rect x="258" y="514" width="484" height="8" fill="rgba(255,255,255,0.56)"/>

  <g opacity="0.96">
    <circle cx="332" cy="520" r="10" fill="#FFFDF9"/><circle cx="320" cy="506" r="8" fill="#F1E6E1"/><circle cx="342" cy="496" r="8" fill="#FFFDF9"/><circle cx="356" cy="482" r="7" fill="#F8F2EB"/><circle cx="362" cy="466" r="6" fill="#EEDCD6"/>
    <circle cx="308" cy="540" r="12" fill="#FFFDF9"/><circle cx="296" cy="522" r="10" fill="#F1E6E1"/><circle cx="290" cy="500" r="8" fill="#F8F2EB"/><circle cx="298" cy="478" r="7" fill="#EEDCD6"/>
    <circle cx="668" cy="520" r="10" fill="#FFFDF9"/><circle cx="680" cy="506" r="8" fill="#F1E6E1"/><circle cx="658" cy="496" r="8" fill="#FFFDF9"/><circle cx="644" cy="482" r="7" fill="#F8F2EB"/><circle cx="638" cy="466" r="6" fill="#EEDCD6"/>
    <circle cx="692" cy="540" r="12" fill="#FFFDF9"/><circle cx="704" cy="522" r="10" fill="#F1E6E1"/><circle cx="710" cy="500" r="8" fill="#F8F2EB"/><circle cx="702" cy="478" r="7" fill="#EEDCD6"/>
  </g>
  <g fill="#5D824F">
    <circle cx="318" cy="530" r="6"/><circle cx="356" cy="456" r="5.5"/><circle cx="290" cy="486" r="5"/><circle cx="682" cy="530" r="6"/><circle cx="644" cy="456" r="5.5"/><circle cx="710" cy="486" r="5"/>
  </g>

  <rect width="1000" height="560" fill="rgba(255,255,255,0.03)"/>
  <rect width="1000" height="560" fill="rgba(24,16,12,0.04)"/>
</svg>
